<svg width="14" height="15" viewBox="0 0 14 15" fill="none" xmlns="http://www.w3.org/2000/svg">
<path d="M2.625 9.31725C2.42887 9.31725 2.26444 9.25094 2.13169 9.11831C1.99906 8.98556 1.93275 8.82113 1.93275 8.625C1.93275 8.42887 1.99906 8.26444 2.13169 8.13169C2.26444 7.99906 2.42887 7.93275 2.625 7.93275C2.82113 7.93275 2.98556 7.99906 3.11831 8.13169C3.25094 8.26444 3.31725 8.42887 3.31725 8.625C3.31725 8.82113 3.25094 8.98556 3.11831 9.11831C2.98556 9.25094 2.82113 9.31725 2.625 9.31725ZM2.625 12.3173C2.42887 12.3173 2.26444 12.2509 2.13169 12.1183C1.99906 11.9856 1.93275 11.8211 1.93275 11.625C1.93275 11.4289 1.99906 11.2644 2.13169 11.1317C2.26444 10.9991 2.42887 10.9327 2.625 10.9327C2.82113 10.9327 2.98556 10.9991 3.11831 11.1317C3.25094 11.2644 3.31725 11.4289 3.31725 11.625C3.31725 11.8211 3.25094 11.9856 3.11831 12.1183C2.98556 12.2509 2.82113 12.3173 2.625 12.3173ZM2.625 6.31725C2.42887 6.31725 2.26444 6.25094 2.13169 6.11831C1.99906 5.98556 1.93275 5.82113 1.93275 5.625C1.93275 5.42887 1.99906 5.26444 2.13169 5.13169C2.26444 4.99906 2.42887 4.93275 2.625 4.93275C2.82113 4.93275 2.98556 4.99906 3.11831 5.13169C3.25094 5.26444 3.31725 5.42887 3.31725 5.625C3.31725 5.82113 3.25094 5.98556 3.11831 6.11831C2.98556 6.25094 2.82113 6.31725 2.625 6.31725ZM0.375 6C0.275 6 0.1875 5.9625 0.1125 5.8875C0.0375 5.8125 0 5.725 0 5.625C0 5.525 0.0375 5.4375 0.1125 5.3625C0.1875 5.2875 0.275 5.25 0.375 5.25C0.475 5.25 0.5625 5.2875 0.6375 5.3625C0.7125 5.4375 0.75 5.525 0.75 5.625C0.75 5.725 0.7125 5.8125 0.6375 5.8875C0.5625 5.9625 0.475 6 0.375 6ZM2.625 3.31725C2.42887 3.31725 2.26444 3.25094 2.13169 3.11831C1.99906 2.98556 1.93275 2.82113 1.93275 2.625C1.93275 2.42887 1.99906 2.26444 2.13169 2.13169C2.26444 1.99906 2.42887 1.93275 2.625 1.93275C2.82113 1.93275 2.98556 1.99906 3.11831 2.13169C3.25094 2.26444 3.31725 2.42887 3.31725 2.625C3.31725 2.82113 3.25094 2.98556 3.11831 3.11831C2.98556 3.25094 2.82113 3.31725 2.625 3.31725ZM0.375 9C0.275 9 0.1875 8.9625 0.1125 8.8875C0.0375 8.8125 0 8.725 0 8.625C0 8.525 0.0375 8.4375 0.1125 8.3625C0.1875 8.2875 0.275 8.25 0.375 8.25C0.475 8.25 0.5625 8.2875 0.6375 8.3625C0.7125 8.4375 0.75 8.525 0.75 8.625C0.75 8.725 0.7125 8.8125 0.6375 8.8875C0.5625 8.9625 0.475 9 0.375 9ZM5.625 14.25C5.525 14.25 5.4375 14.2125 5.3625 14.1375C5.2875 14.0625 5.25 13.975 5.25 13.875C5.25 13.775 5.2875 13.6875 5.3625 13.6125C5.4375 13.5375 5.525 13.5 5.625 13.5C5.725 13.5 5.8125 13.5375 5.8875 13.6125C5.9625 13.6875 6 13.775 6 13.875C6 13.975 5.9625 14.0625 5.8875 14.1375C5.8125 14.2125 5.725 14.25 5.625 14.25ZM5.625 0.75C5.525 0.75 5.4375 0.7125 5.3625 0.6375C5.2875 0.5625 5.25 0.475 5.25 0.375C5.25 0.275 5.2875 0.1875 5.3625 0.1125C5.4375 0.0375 5.525 0 5.625 0C5.725 0 5.8125 0.0375 5.8875 0.1125C5.9625 0.1875 6 0.275 6 0.375C6 0.475 5.9625 0.5625 5.8875 0.6375C5.8125 0.7125 5.725 0.75 5.625 0.75ZM5.625 3.31725C5.42887 3.31725 5.26444 3.25094 5.13169 3.11831C4.99906 2.98556 4.93275 2.82113 4.93275 2.625C4.93275 2.42887 4.99906 2.26444 5.13169 2.13169C5.26444 1.99906 5.42887 1.93275 5.625 1.93275C5.82113 1.93275 5.98556 1.99906 6.11831 2.13169C6.25094 2.26444 6.31725 2.42887 6.31725 2.625C6.31725 2.82113 6.25094 2.98556 6.11831 3.11831C5.98556 3.25094 5.82113 3.31725 5.625 3.31725ZM5.62669 9.63469C5.34669 9.63469 5.10813 9.53669 4.911 9.34069C4.71388 9.14469 4.61531 8.90669 4.61531 8.62669C4.61531 8.34669 4.71331 8.10813 4.90931 7.911C5.10531 7.71388 5.34331 7.61531 5.62331 7.61531C5.90331 7.61531 6.14187 7.71331 6.339 7.90931C6.53612 8.10531 6.63469 8.34331 6.63469 8.62331C6.63469 8.90331 6.53669 9.14187 6.34069 9.339C6.14469 9.53613 5.90669 9.63469 5.62669 9.63469ZM5.62669 6.63469C5.34669 6.63469 5.10813 6.53669 4.911 6.34069C4.71388 6.14469 4.61531 5.90669 4.61531 5.62669C4.61531 5.34669 4.71331 5.10812 4.90931 4.911C5.10531 4.71387 5.34331 4.61531 5.62331 4.61531C5.90331 4.61531 6.14187 4.71331 6.339 4.90931C6.53612 5.10531 6.63469 5.34331 6.63469 5.62331C6.63469 5.90331 6.53669 6.14188 6.34069 6.339C6.14469 6.53613 5.90669 6.63469 5.62669 6.63469ZM5.625 12.3173C5.42887 12.3173 5.26444 12.2509 5.13169 12.1183C4.99906 11.9856 4.93275 11.8211 4.93275 11.625C4.93275 11.4289 4.99906 11.2644 5.13169 11.1317C5.26444 10.9991 5.42887 10.9327 5.625 10.9327C5.82113 10.9327 5.98556 10.9991 6.11831 11.1317C6.25094 11.2644 6.31725 11.4289 6.31725 11.625C6.31725 11.8211 6.25094 11.9856 6.11831 12.1183C5.98556 12.2509 5.82113 12.3173 5.625 12.3173ZM7.3125 13.6802V0.569813C8.19425 0.588938 9.02288 0.77425 9.79838 1.12575C10.5739 1.47712 11.2498 1.9495 11.8262 2.54287C12.4027 3.13612 12.857 3.826 13.1891 4.6125C13.5214 5.399 13.6875 6.2365 13.6875 7.125C13.6875 8.0135 13.5214 8.851 13.1891 9.6375C12.857 10.424 12.4027 11.1139 11.8262 11.7071C11.2498 12.3005 10.5739 12.7729 9.79838 13.1243C9.02288 13.4757 8.19425 13.6611 7.3125 13.6802Z" fill="#DCE8FF"/>
</svg>
