<svg width="16" height="15" viewBox="0 0 16 15" fill="none" xmlns="http://www.w3.org/2000/svg">
<path d="M13.7278 14.1114L8.14612 8.52975H7.77112C7.42887 9.19987 6.93656 9.74244 6.29419 10.1574C5.65194 10.5723 4.92887 10.7797 4.125 10.7797C2.98075 10.7797 2.00719 10.3783 1.20431 9.57544C0.401438 8.77256 0 7.799 0 6.65475C0 5.80575 0.233688 5.04231 0.701063 4.36444C1.16831 3.68656 1.77794 3.20288 2.52994 2.91338L0.418312 0.801937L1.22025 0L14.5297 13.3095L13.7278 14.1114ZM4.125 7.86619C4.46063 7.86619 4.74644 7.74819 4.98244 7.51219C5.21844 7.27619 5.33644 6.99038 5.33644 6.65475C5.33644 6.59613 5.33044 6.54419 5.31844 6.49894C5.30644 6.45381 5.28844 6.4115 5.26444 6.372L4.42219 5.52975C4.38269 5.50575 4.33794 5.48531 4.28794 5.46844C4.23794 5.45169 4.18363 5.44331 4.125 5.44331C3.78938 5.44331 3.50356 5.56131 3.26756 5.79731C3.03156 6.03331 2.91356 6.31913 2.91356 6.65475C2.91356 6.99038 3.03156 7.27619 3.26756 7.51219C3.50356 7.74819 3.78938 7.86619 4.125 7.86619ZM13.9672 10.6283L8.78231 5.44331H15.75V7.86619H14.0481V10.6283H13.9672Z" fill="#DCE8FF"/>
</svg>
