<svg width="15" height="12" viewBox="0 0 15 12" fill="none" xmlns="http://www.w3.org/2000/svg">
<path d="M1.35581 11.25C0.976937 11.25 0.65625 11.1188 0.39375 10.8563C0.13125 10.5938 0 10.2731 0 9.89419V1.35581C0 0.976937 0.13125 0.65625 0.39375 0.39375C0.65625 0.13125 0.976937 0 1.35581 0H12.8942C13.2731 0 13.5938 0.13125 13.8563 0.39375C14.1188 0.65625 14.25 0.976937 14.25 1.35581V9.89419C14.25 10.2731 14.1188 10.5938 13.8563 10.8563C13.5938 11.1188 13.2731 11.25 12.8942 11.25H1.35581ZM2.322 10.125H12.8942C12.9519 10.125 13.0048 10.1009 13.0528 10.0528C13.1009 10.0048 13.125 9.95194 13.125 9.89419V1.35581C13.125 1.29806 13.1009 1.24519 13.0528 1.19719C13.0048 1.14906 12.9519 1.125 12.8942 1.125H9.68644L11.4015 7.75969L2.322 10.125Z" fill="#DCE8FF"/>
</svg>
